{
  "accessors": [
    {
      "bufferView": 1,
      "componentType": 5126,
      "count": 36704,
      "max": [
        0.78258997201919556,
        0.7697100043296814,
        0.18630999326705933
      ],
      "min": [
        -0.78258997201919556,
        -5.0149202346801758,
        0.013690000399947166
      ],
      "type": "VEC3"
    },
    {
      "bufferView": 1,
      "byteOffset": 440448,
      "componentType": 5126,
      "count": 36704,
      "max": [
        1,
        1,
        1
      ],
      "min": [
        -1,
        -1,
        -1
      ],
      "type": "VEC3"
    },
    {
      "bufferView": 0,
      "componentType": 5125,
      "count": 220224,
      "max": [
        36703
      ],
      "min": [
        0
      ],
      "type": "SCALAR"
    }
  ],
  "asset": {
    "extras": {
      "author": "Philip Combs (https://sketchfab.com/pcmonster)",
      "license": "CC-BY-4.0 (http://creativecommons.org/licenses/by/4.0/)",
      "source": "https://sketchfab.com/models/ae964b508b184851858b91de06b0e6d5",
      "title": "Key"
    },
    "generator": "Sketchfab-3.29.4",
    "version": "2.0"
  },
  "bufferViews": [
    {
      "buffer": 0,
      "byteLength": 880896,
      "byteOffset": 0,
      "name": "floatBufferViews",
      "target": 34963
    },
    {
      "buffer": 0,
      "byteLength": 880896,
      "byteOffset": 880896,
      "byteStride": 12,
      "name": "floatBufferViews",
      "target": 34962
    }
  ],
  "buffers": [
    {
      "byteLength": 1761792,
      "uri": "scene.bin"
    }
  ],
  "extensionsRequired": [
    "KHR_materials_pbrSpecularGlossiness"
  ],
  "extensionsUsed": [
    "KHR_materials_pbrSpecularGlossiness"
  ],
  "materials": [
    {
      "doubleSided": true,
      "emissiveFactor": [
        0,
        0,
        0
      ],
      "extensions": {
        "KHR_materials_pbrSpecularGlossiness": {
          "diffuseFactor": [
            1,
            1,
            0,
            1
          ],
          "glossinessFactor": 0.89999999850000001,
          "specularFactor": [
            0.52321136000000001,
            0.52321136000000001,
            0.52321136000000001
          ]
        }
      },
      "name": "Material.001"
    }
  ],
  "meshes": [
    {
      "name": "Circle.001",
      "primitives": [
        {
          "attributes": {
            "NORMAL": 1,
            "POSITION": 0
          },
          "indices": 2,
          "material": 0,
          "mode": 4
        }
      ]
    }
  ],
  "nodes": [
    {
      "children": [
        1
      ],
      "name": "RootNode (gltf orientation matrix)",
      "rotation": [
        -0.70710678118654746,
        -0,
        -0,
        0.70710678118654757
      ]
    },
    {
      "children": [
        2
      ],
      "name": "RootNode (model correction matrix)"
    },
    {
      "children": [
        3
      ],
      "name": "Root"
    },
    {
      "children": [
        4
      ],
      "matrix": [
        0.64000000000000012,
        0,
        0,
        0,
        0,
        0.40000000000000002,
        0,
        0,
        0,
        0,
        0.40000000000000002,
        0,
        0,
        1,
        0,
        1
      ],
      "name": "Circle.001"
    },
    {
      "mesh": 0,
      "name": "Circle.001"
    }
  ],
  "scene": 0,
  "scenes": [
    {
      "name": "OSG_Scene",
      "nodes": [
        0
      ]
    }
  ]
}

